<svg width="197" height="323" viewBox="0 0 197 323" fill="none" xmlns="http://www.w3.org/2000/svg">
<path fill-rule="evenodd" clip-rule="evenodd" d="M92.1535 318.591C90.9204 319.713 87.486 321.11 84.2271 319.938C82.9111 321.03 77.1351 321.786 74.0381 320.632C69.6864 321.577 64.3881 320.996 60.2861 319.954C56.7265 319.049 53.486 316.446 55.3165 311.35C55.3165 311.35 56.1909 309.467 55.9221 308.256C55.6533 307.046 54.3529 306.014 54.3529 306.014C54.3529 306.014 53.9269 305.644 53.7813 305.992C50.6701 313.423 47.6964 318.237 37.9334 317.95C32.0376 317.777 22.4937 317.65 22.4937 317.65C22.4937 317.65 16.5299 317.65 14.96 316.708C13.3908 315.766 13.7944 314.107 13.7944 314.107C13.7944 314.107 13.7494 311.327 19.3546 309.22C24.9598 307.112 30.565 305.587 33.6143 304.69C36.6636 303.794 39.4883 302.897 42.8064 296.619L44.8689 292.001C44.8689 292.001 37.0664 290.88 34.1968 289.669C31.3272 288.458 30.4745 287.695 30.2057 286.036C29.9369 284.377 32.1792 278.503 32.1792 278.503C32.1792 278.503 34.78 271.463 39.5332 265.23C44.2864 258.998 46.5287 256.688 46.5287 256.688L48.3653 247.58C48.3653 247.58 41.4161 247.339 35.7218 242.316C30.0268 237.294 32.6725 229.133 32.6725 229.133C32.6725 229.133 24.7584 223.281 20.095 215.837C15.4316 208.394 14.6239 204.447 14.0863 199.964C13.548 195.48 14.0863 193.507 14.0863 193.507C14.0863 193.507 6.05991 190.816 0.00626742 191.534C0.00626742 191.534 -0.307438 187.049 3.50399 178.171C10.4157 162.071 14.5545 153.747 24.8482 139.966C30.4085 132.522 33.9961 127.679 33.9961 127.679C33.9961 127.679 41.6475 106.681 44.758 101.761C47.8685 96.8422 47.8298 96.5823 48.3224 95.9773C47.8515 93.6677 45.8339 86.0898 46.4613 80.4621C47.0887 74.8345 48.4007 71.8417 48.4007 71.8417C48.4007 71.8417 45.8788 69.1177 30.005 62.5707C14.1312 56.0237 14.1312 56.0237 14.1312 56.0237C14.1312 56.0237 18.2563 52.347 29.1979 49.2079C40.1395 46.0688 48.121 45.0154 49.8025 44.7915L50.9464 44.6799C50.9464 44.6799 52.9198 36.429 55.8793 30.1508C55.8793 30.1508 57.5832 18.6709 58.6591 16.1599C58.6591 16.1599 60.7216 12.6622 68.4343 7.55034C71.325 5.63408 79.4317 0.891067 82.9743 0.0744787C83.7821 -0.111976 85.4881 -0.0602584 88.8095 1.57904C94.5331 4.40308 101.28 8.54046 106.549 12.1239C106.549 12.1239 115.536 7.09918 125.402 6.56091C135.267 6.02264 149.149 6.02604 165.74 17.0568C182.331 28.0875 190.134 46.652 190.134 46.652C190.134 46.652 198.743 65.2164 196.681 85.395C194.579 105.96 188.704 138.371 167.355 147.836L170.891 152.059C171.276 152.483 172.267 153.446 171.324 154.436C170.495 155.307 169.57 155.655 168.79 156.065L171.794 160.639C171.794 160.639 176.682 159.294 178.52 161.536C180.359 163.778 180.762 164.854 181.614 167.903C181.614 167.903 184.887 168.935 184.708 175.616C184.708 175.616 188.789 174.988 189.058 178.351C189.447 183.221 186.253 184.413 182.197 184.763L185.964 194.09C187.771 197.38 185.544 200.022 182.565 201.785C179.624 203.523 175.915 204.824 172.522 203.804C170.848 203.301 169.29 202.344 168.323 201.053C167.68 200.195 167.457 199.186 167.32 197.462L166.637 189.651C166.637 189.651 161.777 189.471 160.628 192.969C160.583 194.996 160.749 198.209 160.43 200.12C160.266 201.096 159.766 202.511 158.296 203.596C155.534 205.637 154.53 206.377 147.758 210.188C140.988 213.999 140.853 213.686 140.853 213.686C140.853 213.686 141.787 221.824 137.61 229.519C135.1 234.143 131.167 239.169 125.427 238.214L124.552 237.979L129.933 254.716C129.933 254.716 133.162 259.289 136.659 267.002C140.157 274.715 140.605 279.423 140.605 279.423L140.74 282.249C140.74 282.249 138.498 285.791 128.05 290.32L127.176 290.723C127.176 290.723 127.804 296.957 129.597 302.203C131.391 307.449 131.66 308.615 131.66 308.615C133.107 312.957 131.875 315.103 128.134 316.912C123.361 319.22 118.438 321.002 109.837 321.167C106.734 322.858 103.561 322.112 101.793 321.242C97.6212 321.818 94.0289 320.323 92.1535 318.591ZM160.765 158.213L161.303 163.762C161.303 163.762 158.758 164.536 157.962 165.085C157.23 162.554 154.271 155.094 152.584 152.762L156.266 151.509L156.166 156.863C156.132 158.708 160.639 158.226 160.765 158.213ZM85.6691 306.218C86.1216 304.781 86.0359 303.434 86.0624 301.796C85.9882 300.046 85.9494 298.406 87.9093 298.599C90.0079 298.805 92.8448 298.655 94.8217 298.115C96.5522 297.642 98.8522 296.095 99.2993 298.39C99.7076 300.483 100.492 303.748 102.194 305.229C98.9033 306.102 94.5066 308.606 92.5536 310.99C90.5434 308.987 88.2407 307.145 85.6691 306.218Z" fill="#122F4B"/>
<path fill-rule="evenodd" clip-rule="evenodd" d="M47.2085 292.698L53.307 304.043C49.7406 311.037 46.8573 316.517 38.2852 316.464C33.0161 316.432 24.5692 316.16 20.3903 316.016C18.7864 315.961 13.8243 315.58 16.4925 312.608C18.4652 310.411 28.3303 308.168 28.3303 308.168L36.9848 305.523C42.5185 304.107 44.7934 297.453 47.2085 292.698Z" fill="white"/>
<path fill-rule="evenodd" clip-rule="evenodd" d="M46.5599 287.426C46.138 288.176 45.2929 288.542 46.0972 290.395C46.0972 290.395 38.6629 290.437 33.3047 287.006C37.7231 287.146 42.1415 287.286 46.5599 287.426V287.426Z" fill="white"/>
<path fill-rule="evenodd" clip-rule="evenodd" d="M127.272 283.767C127.866 284.96 128.172 286.255 127.506 287.903C127.506 287.903 132.743 286.711 135.68 284.133C137.12 282.869 136.345 282.687 135.18 282.832C132.27 283.192 130.443 283.589 127.272 283.767Z" fill="white"/>
<path fill-rule="evenodd" clip-rule="evenodd" d="M84.0005 264.156C88.5959 264.669 97.053 265.129 101.87 263.954C103.506 263.554 108.82 276.643 108.82 276.643C108.82 276.643 110.68 279.312 107.273 278.056C103.865 276.801 98.0581 276.195 94.0221 275.971C89.9861 275.747 81.9597 276.016 81.9597 276.016L83.9998 264.156H84.0005Z" fill="white"/>
<path fill-rule="evenodd" clip-rule="evenodd" d="M88.7769 244.358L84.2475 262.878C92.3025 263.673 117.131 262.972 127.8 253.304L122.677 237.408C110.898 241.628 101.205 244.926 88.7769 244.358Z" fill="white"/>
<path fill-rule="evenodd" clip-rule="evenodd" d="M104.628 264.335L110.222 275.142C110.222 275.142 113.776 281.195 110.189 280.523C106.167 279.769 104.583 277.698 95.3463 277.34C86.1087 276.981 81.759 277.788 81.759 277.788L80.9519 287.698C80.9519 287.698 85.2254 288.773 101.467 286.42C117.565 284.088 117.52 283.617 125.502 282.63C133.484 281.644 139.202 281.196 139.202 281.196C139.202 281.196 136.492 271.083 131.713 262.542L127.498 255.681C121.447 259.718 111.47 262.674 104.404 263.707L104.628 264.335V264.335Z" fill="white"/>
<path fill-rule="evenodd" clip-rule="evenodd" d="M82.3837 244.624C79.5188 247.864 75.8598 252.619 73.2284 258.214C68.2513 268.797 67.9818 269.111 67.9818 269.111C67.9818 269.111 67.3537 266.914 70.8963 259.066C74.439 251.219 80.8961 243.865 80.8961 243.865C80.8961 243.865 84.025 240.399 85.3806 239.335L87.1519 237.945C86.1026 237.941 85.5398 237.684 84.3197 237.392C83.4752 237.687 79.6815 238.91 77.6903 239.313C75.4536 241.169 74.2981 241.634 70.9623 242.094C69.615 243.416 67.7879 244.781 64.9332 248.057C56.6407 257.573 54.3951 270.097 54.3951 270.097C56.6598 272.496 59.4621 274.895 65.2918 278.662C71.1209 282.428 78.8792 287.988 78.8792 287.988C78.8792 287.988 79.1929 274.85 80.9866 267.496C82.7804 260.142 88.5653 237.901 88.5653 237.901C86.5639 240.429 84.5163 242.214 82.3851 244.624H82.3837Z" fill="white"/>
<path fill-rule="evenodd" clip-rule="evenodd" d="M32.5575 283.415C32.5575 283.415 31.302 285.927 33.3196 285.837C35.3373 285.747 74.4389 286.42 74.4389 286.42C72.407 284.93 59.1599 276.274 54.4516 272.656C53.2226 271.713 52.3237 270.301 52.7844 268.911C53.5717 266.535 54.2617 264.142 55.4376 261.6L48.5211 258.663C48.5211 258.663 42.1987 263.955 38.5213 271.174C34.8446 278.394 35.1134 277.542 32.5575 283.416V283.415Z" fill="white"/>
<path fill-rule="evenodd" clip-rule="evenodd" d="M119.755 220.233L122.535 235.524L99.7083 242.377C99.7083 242.377 97.1551 242.968 96.8407 242.295C96.527 241.623 97.1095 241.263 98.0962 239.919C99.0829 238.573 107.199 230.637 107.199 230.637C107.199 230.637 110.876 226.825 119.755 220.233Z" fill="white"/>
<path fill-rule="evenodd" clip-rule="evenodd" d="M51.1274 288.055C59.2327 288.126 67.3387 288.196 75.444 288.267C76.5634 288.209 77.1473 288.472 77.5168 288.815C77.9619 289.228 78.6505 290.168 79.1534 290.7L80.2013 289.79C81.0826 289.025 80.724 289.066 81.9699 289.128C84.7912 289.27 92.4515 289.676 98.7937 288.638C106.73 287.337 121.349 284.961 121.349 284.961C121.349 284.961 125.743 283.706 125.833 286.8C126.071 294.998 126.434 298.523 129.051 306.373C129.389 307.385 129.662 308.169 129.882 308.794C130.765 311.31 130.719 313.053 129.614 314.083C126.842 316.666 121.998 318.359 117.35 319.258C116.665 319.391 112.344 320.09 110.585 320.212C109.775 320.268 109.453 319.932 109.334 319.371C109.078 318.169 108.967 316.496 109.881 315.005C110.94 313.278 113.172 312.578 112.851 312.449L112.291 312.225C111.473 312.769 110.644 313.39 109.89 314.042C107.554 316.069 108.255 318.876 108.804 320.476C108.4 320.98 106.819 321.238 105.25 321.148C103.681 321.058 102.515 320.834 102.022 320.072C101.529 319.31 101.215 316.485 101.887 315.095C102.56 313.705 104.668 311.866 104.668 311.866C104.617 311.771 104.613 311.538 104.513 311.58C102.264 312.548 100.883 314.501 100.841 316.979C100.82 318.266 101.372 320.432 101.372 320.432C98.2779 320.342 94.0405 319.176 93.1885 317.248C92.3365 315.32 92.785 313.929 92.785 313.929C92.785 313.929 93.2783 311.687 95.4756 310.208C97.6729 308.728 105.475 305.051 105.475 305.051C102.157 305.204 100.63 298.829 100.185 296.352L108.436 290.791L106.732 290.747C106.732 290.747 101.082 296.037 90.3196 297.249C79.5576 298.459 72.5179 291.464 72.5179 291.464L72.0695 292.361C72.0695 292.361 79.7373 297.362 85.0287 298.437L84.5354 305.97C84.5354 305.97 73.6482 303.252 65.6776 306.691C72.3526 305.811 74.7356 306.184 79.6699 306.598C85.0056 307.046 86.7361 308.5 89.0457 310.23C90.9898 311.687 91.5819 315.193 91.1321 317.094C90.9517 317.855 89.9956 318.613 88.5938 318.929C85.814 319.556 84.6701 318.884 84.6701 318.884C85.32 318.032 85.4996 312.809 83.3248 312.809L81.6365 312.715C84.3204 312.95 84.4796 314.971 84.387 316.709C84.321 317.947 84.1346 319.009 82.8008 319.324C81.2214 319.695 79.4378 319.993 77.5352 319.967C76.8275 319.958 74.7343 319.838 75.0072 318.594C75.6502 315.666 75.1861 312.969 73.2358 312.047C73.8544 313.096 74.2627 314.315 74.4015 315.164C74.6608 316.741 74.1327 318.258 74.1327 318.258C74.1327 318.258 73.8415 319.827 69.8504 319.827C65.8593 319.827 60.1643 319.737 57.967 317.809C55.8867 315.983 55.639 314.26 56.2488 312.298C56.6217 311.098 56.8701 310.351 57.0688 309.671C57.2076 309.197 57.4805 308.036 56.9245 307.227C56.3808 306.434 51.0008 296.592 48.7974 292.11C47.6916 289.861 47.5671 287.869 51.1288 288.058L51.1274 288.055Z" fill="white"/>
<path fill-rule="evenodd" clip-rule="evenodd" d="M48.4599 256.24L56.1276 259.334C57.8227 254.322 64.3323 245.67 68.8181 242.877C68.8181 242.877 60.1636 242.249 52.9885 238.617C52.9885 238.617 51.0607 243.191 48.4599 256.24Z" fill="white"/>
<path fill-rule="evenodd" clip-rule="evenodd" d="M53.2138 226.644C53.2138 226.644 53.3928 235.299 49.3574 245.164C49.3574 245.164 39.0888 245.209 35.2774 237.675C35.2774 237.675 32.318 232.877 35.2774 225.658C38.2369 218.438 40.0756 214.806 40.0756 214.806L43.3038 208.752L50.8375 213.954L47.4745 219.694C46.0612 221.946 46.4014 221.956 48.187 222.602C49.8692 223.211 52.4965 224.267 52.4965 224.267L46.9812 228.303L44.8288 230.231C44.8288 230.231 48.3265 228.886 50.1203 227.854C51.914 226.823 53.2145 226.644 53.2145 226.644L53.2138 226.644Z" fill="white"/>
<path fill-rule="evenodd" clip-rule="evenodd" d="M41.5549 186.332C41.5549 186.332 40.1395 201.51 42.8105 205.883C42.8105 205.883 50.568 209.919 53.752 213.148C52.9579 215.15 52.1801 216.879 50.943 218.631C50.0339 219.918 49.056 221.48 50.5238 221.847C52.1379 222.25 58.8646 224.941 67.3394 230.68C75.8142 236.42 74.245 235.075 77.3841 237.989L82.8995 236.689L61.7342 199.605C61.7342 199.605 54.0664 202.654 50.4789 199.65C46.8913 196.646 45.0084 194.045 41.5556 186.332H41.5549ZM62.2691 216.838C63.9465 216.838 65.3061 218.193 65.3061 219.863C65.3061 221.535 63.9465 222.889 62.2691 222.889C60.5917 222.889 59.232 221.534 59.232 219.863C59.232 218.192 60.5917 216.838 62.2691 216.838Z" fill="white"/>
<path fill-rule="evenodd" clip-rule="evenodd" d="M55.6363 225.3C55.6363 225.3 55.4118 230.098 54.3359 234.178C53.8072 236.182 54.9116 237.292 56.1726 237.902C58.9755 239.259 71.3305 241.031 73.6625 240.5C76.622 239.827 74.5145 238.213 74.5145 238.213L55.6363 225.299V225.3Z" fill="white"/>
<path fill-rule="evenodd" clip-rule="evenodd" d="M65.5021 201.219L80.479 228.661C81.6957 230.706 83.0267 233.532 84.6926 235.478C86.3523 237.417 89.9616 238.049 91.2409 234.85C93.0347 230.366 99.3122 214.671 100.658 209.201C102.003 203.73 101.733 201.488 101.733 201.488C101.733 201.488 95.9935 207.407 85.2315 207.766C74.1559 208.08 65.5014 201.219 65.5014 201.219H65.5021Z" fill="white"/>
<path fill-rule="evenodd" clip-rule="evenodd" d="M30.0547 136.558C30.0547 136.558 17.7011 151.153 10.8628 166.243C4.02457 181.332 2.86638 183.028 1.96201 189.695C5.45224 189.232 10.7655 190.487 14.7416 191.645C18.8075 170.271 24.3311 156.054 30.0547 136.558Z" fill="white"/>
<path fill-rule="evenodd" clip-rule="evenodd" d="M106.644 196.646L104.671 198.798C104.671 198.798 104.581 207.946 99.6491 219.784C94.7169 231.621 91.5778 238.258 91.5778 238.258L89.3356 242.025C89.3356 242.025 91.488 244.536 94.4474 241.308C97.4069 238.079 103.505 230.366 109.424 225.703C113.347 222.612 117.199 219.694 119.768 217.86C121.726 216.462 121.936 215.995 120.533 215.226L114.446 211.353C114.446 211.353 111.756 209.918 112.563 207.855C113.37 205.793 115.612 203.73 115.612 203.73C115.612 203.73 109.424 201.667 106.644 196.645V196.646ZM112.694 213.743C114.136 213.743 115.305 214.998 115.305 216.545C115.305 218.092 114.136 219.346 112.694 219.346C111.252 219.346 110.083 218.091 110.083 216.545C110.083 214.997 111.252 213.743 112.694 213.743Z" fill="white"/>
<path fill-rule="evenodd" clip-rule="evenodd" d="M52.106 112.019L46.8594 116.033C46.8594 116.033 43.3174 129.127 42.5104 143.297C41.7033 157.466 41.7931 165.806 41.7931 165.806C41.7931 165.806 44.4838 155.313 50.3129 145.628C56.1426 135.943 56.77 134.418 56.77 134.418C56.77 134.418 57.7567 127.692 55.6942 121.772C53.6316 115.853 52.106 112.019 52.106 112.019Z" fill="white"/>
<path fill-rule="evenodd" clip-rule="evenodd" d="M51.2996 110.158L47.4657 113.32C47.4657 113.32 48.43 108.903 49.0125 106.436C49.5956 103.97 51.2098 105.136 51.2098 105.136L51.2996 110.158Z" fill="white"/>
<path fill-rule="evenodd" clip-rule="evenodd" d="M70.5363 132.534C76.6594 138.619 89.4159 141.154 97.7103 130.65C99.0407 132.073 106.32 151.098 106.32 151.098C106.32 151.098 113.324 172.45 109.503 183.742C105.683 195.034 104.536 197.721 96.8135 202.755C92.936 205.282 87.5323 206.379 84.1414 206.394C76.8724 206.426 68.8896 202.924 63.0768 196.209C55.9044 187.924 55.916 170.854 58.5196 160.874C60.672 152.623 65.2455 141.861 65.2455 141.861L70.537 132.534H70.5363ZM82.1026 187.619C82.1026 187.619 81.5201 188.426 80.892 188.022C80.2639 187.619 80.3987 186.812 81.3405 186.184C82.2823 185.556 84.1652 184.121 84.1652 184.121C84.1652 184.121 85.5105 182.327 87.3934 183.763C89.277 185.198 92.9537 188.785 92.9537 188.785C92.9537 188.785 93.7159 189.279 92.9088 190.041C92.5291 190.399 91.6948 189.384 90.8 188.517C89.7935 187.542 88.7388 186.678 88.7388 186.678L86.6088 184.704C86.6088 184.704 86.0481 183.83 85.2186 184.772C84.3891 185.714 82.1019 187.619 82.1019 187.619H82.1026Z" fill="white"/>
<path fill-rule="evenodd" clip-rule="evenodd" d="M69.6844 123.341C69.091 124.709 67.2986 127.152 69.6395 131.412C69.6395 131.412 59.4607 150.605 57.5329 159.035C54.4591 172.473 53.8262 184.225 61.2102 196.701C61.7948 197.69 60.2215 198.242 58.312 198.552C53.0831 199.398 52.6864 199.408 49.1227 195.344C46.807 192.704 44.0496 188.48 42.4661 182.262C39.3726 170.11 50.941 149.034 50.941 149.034C50.941 149.034 57.2185 136.3 69.6837 123.34L69.6844 123.341Z" fill="white"/>
<path fill-rule="evenodd" clip-rule="evenodd" d="M100.044 132.399C105.058 136.494 107.91 139.285 115.021 144.282C115.021 144.282 123.495 155.492 124.392 172.532C124.982 183.724 122.591 191.938 120.881 196.256C119.879 198.788 119.143 201.287 116.186 201.858C113.535 202.37 108.419 197.091 108.048 196.455C107.677 195.82 107.42 194.571 108.339 192.531C108.963 191.146 110.859 187.956 111.705 180.649C112.907 170.261 111.087 160.06 107.701 150.323C106.176 145.938 104.466 140.569 100.044 132.399Z" fill="white"/>
<path fill-rule="evenodd" clip-rule="evenodd" d="M147.395 181.588C147.395 181.588 141.162 184.413 137.62 187.462L137.081 194.772C137.081 194.772 136.376 199.638 139.952 197.821L148.068 193.695C148.068 193.695 146.723 190.287 147.396 181.588L147.395 181.588ZM141.923 186.724C143.168 186.724 144.177 187.683 144.177 188.866C144.177 190.048 143.168 191.007 141.923 191.007C140.679 191.007 139.67 190.048 139.67 188.866C139.67 187.683 140.679 186.724 141.923 186.724Z" fill="white"/>
<path fill-rule="evenodd" clip-rule="evenodd" d="M133.606 152.8C133.606 152.8 139.01 164.593 138.92 183.875C141.252 182.802 147.479 180.157 149.386 178.962C150.283 178.4 151.437 177.17 152.171 174.481C153.261 170.483 151.932 167.966 156.542 165.691C156.542 165.691 155.389 159.711 151.385 153.001C144.275 154.752 138.594 154.561 133.606 152.8V152.8Z" fill="white"/>
<path fill-rule="evenodd" clip-rule="evenodd" d="M135.936 188.404C134.956 191.577 134.624 203.134 139.568 200.107C141.765 198.762 148.671 195.085 148.671 195.085C148.671 195.085 152.258 202.081 156.653 202.215C152.799 205.366 150.712 206.757 143.873 209.883C137.034 213.008 128.582 216.564 128.582 216.564C128.582 216.564 125.733 218.338 124.457 216.653C123.18 214.968 121.834 213.829 120.13 212.573C118.426 211.318 116.52 209.883 116.52 209.883C116.52 209.883 113.381 208.268 115.847 205.959C116.758 205.106 118.235 204.192 119.474 203.239C121.545 201.644 121.552 200.954 122.459 198.682L123.254 196.691C127.904 193.495 131.107 191.349 135.936 188.404H135.936Z" fill="white"/>
<path fill-rule="evenodd" clip-rule="evenodd" d="M153.558 198.022L159.365 193.201C159.365 193.201 159.97 198.088 158.603 200.062C157.235 202.034 154.096 198.671 154.096 198.671L153.558 198.021V198.022Z" fill="white"/>
<path fill-rule="evenodd" clip-rule="evenodd" d="M69.172 122.817L58.3372 134.034C58.3372 134.034 60.0112 127.86 57.2157 118.832C55.7207 114.004 51.8841 105.731 50.8824 100.746C49.9862 96.2822 49.7113 94.6919 49.0254 91.8331C46.7954 82.5376 47.6855 75.517 49.9678 71.1544C51.4037 68.4107 53.6976 64.1188 58.4263 64.9783C58.4263 64.9783 64.0764 65.5608 67.2598 68.655C64.3861 70.5263 62.955 72.0336 59.3675 77.8926C62.2786 74.6555 64.4596 70.6468 68.2063 69.1204C68.3853 71.5484 68.6493 73.2517 69.2768 75.3142C66.5194 77.8178 64.2541 80.2764 62.5508 83.3631C64.8529 81.0154 66.8263 78.1886 69.4353 76.4976C69.8388 78.8759 70.2315 81.1079 71.0501 83.5645C71.0501 83.5645 63.8308 92.5551 62.5753 100.313C61.3198 108.07 62.7543 114.796 62.7543 114.796C62.7543 114.796 62.1241 100.843 65.5803 94.1243C68.716 88.0285 70.5411 85.4719 71.24 84.4811C71.4693 88.8893 76.5321 100.88 78.494 104.483C78.494 104.483 68.6289 108.429 63.1585 117.038C64.8937 120.259 69.617 120.566 71.7612 120.751C68.4677 123.543 61.6335 122.171 60.1092 120.267L59.7057 120.85C60.8006 121.862 63.6926 123.759 69.1699 122.816L69.172 122.817Z" fill="white"/>
<path fill-rule="evenodd" clip-rule="evenodd" d="M73.474 110.178C73.474 110.178 73.0929 110.178 73.0031 109.842C72.9133 109.506 73.3393 109.282 73.6305 109.282C73.8762 109.282 74.0102 109.378 74.1402 109.501C74.2736 109.629 74.2641 109.776 74.1865 109.902C74.0824 110.072 73.8544 110.207 73.6877 110.21C73.5319 111.793 73.0126 112.281 73.0249 112.285C74.3063 112.719 76.3681 112.823 78.0285 111.205C79.4201 109.85 78.8968 108.46 78.3164 106.994L79.7515 105.694C79.7515 105.694 85.2669 111.164 79.0785 116.635C72.8908 122.106 64.729 117.083 64.729 117.083L71.1413 111.209C71.1413 111.209 73.3617 112.325 73.4727 110.178L73.474 110.178Z" fill="white"/>
<path fill-rule="evenodd" clip-rule="evenodd" d="M166.658 180.277C167.467 180.004 168.069 179.524 168.833 178.898L175.665 202.022L174.579 202.149C172.931 202.341 169.96 202.104 169.197 198.831C168.435 195.558 166.658 180.278 166.658 180.278V180.277Z" fill="white"/>
<path fill-rule="evenodd" clip-rule="evenodd" d="M171.963 179.284L179.914 201.61C179.914 201.61 178.446 203.047 176.663 202.081C176.091 200.622 171.932 186.14 171.932 186.14L169.94 179.368C169.77 178.786 169.54 178.577 169.922 178.091C170.156 177.793 170.807 177.53 171.378 178.038C171.742 178.361 171.763 178.726 171.962 179.284H171.963Z" fill="white"/>
<path fill-rule="evenodd" clip-rule="evenodd" d="M172.919 178.831L180.632 201.027C180.632 201.027 186.731 199.144 184.444 194.66C182.606 191.057 179.104 182.766 177.799 179.645C177.475 178.871 177.588 178.473 176.932 178.419C175.648 178.313 173.722 177.461 173.458 177.508C172.83 177.62 172.382 177.598 172.919 178.831Z" fill="white"/>
<path fill-rule="evenodd" clip-rule="evenodd" d="M149.174 180.937C148.03 184.731 148.518 191.99 151.843 196.856C151.843 196.856 157.358 192.282 160.497 190.175C163.636 188.067 166.417 187.888 166.417 187.888L165.655 180.309C165.655 180.309 163.238 180.002 162.172 179.606C162.115 180.519 162.297 182.689 162.202 183.336C161.978 184.86 160.453 184.972 160.453 184.972L157.897 184.883C157.897 184.883 156.597 184.793 156.686 183.851C156.776 182.909 158.884 183.492 158.884 183.492C159.788 183.562 160.54 183.331 161.071 182.878C161.766 182.285 161.485 181.144 161.485 180.309C161.485 178.947 161.681 179.454 160.814 178.513C160.234 177.885 159.468 176.928 159.332 176.138C159.108 174.838 159.153 173.134 159.153 173.134C159.153 173.134 159.287 172.282 159.87 172.372C160.454 172.462 160.588 173.044 160.588 173.044L160.677 175.69C160.677 175.69 160.699 177.441 162.516 178.336C164.508 179.316 165.907 179.184 167.886 178.168C167.886 178.168 169.735 177.081 170.274 175.825C170.812 174.569 170.319 173.582 170.319 173.582L163.989 165.934C162.908 164.794 161.997 164.513 160.579 164.988C159.052 165.499 156.621 166.654 155.655 167.529C154.467 168.605 153.929 170.488 153.638 173.605C153.638 173.605 152.921 179.053 149.176 180.936L149.174 180.937Z" fill="white"/>
<path fill-rule="evenodd" clip-rule="evenodd" d="M170.473 171.408C170.473 171.408 168.276 170.063 170.025 167.888C171.774 165.713 174.464 162.709 174.464 162.709C174.464 162.709 176.303 161.095 178.231 164.144C179.172 165.634 179.098 166.846 178.723 167.763C177.948 169.658 176.101 170.664 174.374 171.543C174.374 171.543 172.357 172.799 170.473 171.409V171.408Z" fill="white"/>
<path fill-rule="evenodd" clip-rule="evenodd" d="M179.666 170.153C179.666 170.153 181.101 168.965 181.684 170.22C182.021 170.947 182.154 172.391 182.207 173.489C182.346 176.364 179.484 177.189 177.02 177.125C173.972 177.086 172.598 176.46 173.107 174.961C173.518 173.75 178.359 171.018 179.666 170.153Z" fill="white"/>
<path fill-rule="evenodd" clip-rule="evenodd" d="M179.643 179.793C179.643 179.793 179.801 183.156 183.096 183.381C184.875 183.501 186.047 182.545 186.748 181.639C187.92 180.125 188.14 177.772 185.675 177.596C183.478 177.439 181.483 177.395 181.483 177.395C181.483 177.395 179.285 177.26 179.644 179.793H179.643Z" fill="white"/>
<path fill-rule="evenodd" clip-rule="evenodd" d="M165.137 157.709C165.973 160.416 167.633 164.115 168.569 167.151C169.663 165.956 170.758 164.76 171.852 163.564L167.58 156.543C166.889 157.1 166.139 157.415 165.136 157.709H165.137Z" fill="white"/>
<path fill-rule="evenodd" clip-rule="evenodd" d="M164.066 157.978C164.712 161.453 166.133 164.963 167.401 167.911C167.401 167.911 164.526 164.163 162.536 163.605C162.341 161.796 161.923 160.324 161.953 158.18C162.66 158.237 163.146 158.152 164.066 157.977L164.066 157.978Z" fill="white"/>
<path fill-rule="evenodd" clip-rule="evenodd" d="M157.244 151.184L157.155 156.902C157.155 156.902 159.487 157.731 163.41 156.722C167.334 155.713 170.148 153.235 170.148 153.235L166.291 148.09C166.291 148.09 164.932 148.251 163.857 148.185C162.618 149.107 159.366 150.741 157.244 151.183V151.184Z" fill="white"/>
<path fill-rule="evenodd" clip-rule="evenodd" d="M48.828 70.3698C48.4796 70.1908 51.5282 65.0429 55.1505 63.7554C44.3729 58.9723 29.3959 57.3649 17.3935 56.4463C29.3619 60.0216 38.7704 64.5747 48.8273 70.3691L48.828 70.3698Z" fill="#122F4B"/>
<path fill-rule="evenodd" clip-rule="evenodd" d="M68.1077 67.5002C68.1077 67.5002 68.0179 56.3796 68.8249 50.8193C69.632 45.259 69.632 45.259 69.632 45.259C57.4825 43.3305 31.8471 48.4709 17.7956 55.4827C17.7956 55.4827 33.5796 55.9311 49.1397 60.5496C64.6998 65.1681 68.1077 67.5002 68.1077 67.5002Z" fill="white"/>
<path fill-rule="evenodd" clip-rule="evenodd" d="M84.1162 24.3183C84.1162 24.3183 67.3203 24.0196 57.0068 30.6115C57.0068 30.6115 53.7174 38.1139 52.2114 44.5983C58.7421 43.4605 62.842 43.453 69.9089 44.0001C70.1512 42.2445 74.5553 30.5645 84.1162 24.319V24.3183Z" fill="#122F4B"/>
<path fill-rule="evenodd" clip-rule="evenodd" d="M84.8096 23.5936C91.4853 18.5266 100.289 14.6533 105.682 12.7806C97.4531 7.12844 87.5316 2.05539 84.924 1.61715C84.2401 1.50215 82.0625 1.66887 80.7083 2.34596C78.0177 3.69061 75.148 4.90188 69.5428 8.93786C63.9376 12.9732 61.249 14.8608 60.3501 16.2919C59.4519 17.723 58.3869 20.6729 57.4573 29.5445C59.7894 27.7956 69.9226 22.6974 84.8096 23.5943V23.5936Z" fill="white"/>
<path fill-rule="evenodd" clip-rule="evenodd" d="M112.443 11.0113C112.443 11.0113 104.999 12.85 94.1473 29.5309C83.8869 45.3026 85.7201 71.7213 93.0626 89.1248C101.44 108.982 114.335 127.157 134.146 136.971C134.146 136.971 150.558 145.939 166.7 142.083C166.7 142.083 172.889 141.007 178.898 136.432C178.898 136.432 176.297 143.517 164.189 146.477C152.082 149.436 142.127 145.849 134.326 142.53C126.523 139.212 114.775 130.064 114.775 130.064C96.9904 114.138 83.3234 93.6133 82.4892 69.0803C82.0407 55.8971 83.1173 46.8391 87.0627 36.0772C91.0089 25.3152 97.5552 18.5893 97.5552 18.5893C97.5552 18.5893 82.04 27.109 80.7845 58.6776C79.4045 93.369 96.6985 120.607 124.998 138.943C142.576 150.334 155.939 148.898 162.934 147.822C162.934 147.822 155.63 151.921 145.895 152.755C136.159 153.588 123.205 148.45 117.734 144.504C112.263 140.558 95.2239 127.15 88.3182 117.509C81.4126 107.868 70.6956 90.4252 69.1706 68.229C68.5296 53.5188 68.7963 37.7008 83.878 25.3608C83.878 25.3608 90.9184 18.0966 112.442 11.0113H112.443Z" fill="white"/>
<path fill-rule="evenodd" clip-rule="evenodd" d="M121.141 32.8945C121.141 32.8945 134.683 36.527 148.046 52.9384C161.408 69.3504 162.799 73.3415 162.799 73.3415C166.958 73.5368 174.81 70.8053 179.053 69.3504C174.857 46.8051 162.564 29.3362 151.744 21.1016C151.744 21.1016 142.148 21.8189 121.141 32.8945Z" fill="white"/>
<path fill-rule="evenodd" clip-rule="evenodd" d="M166.899 83.5203C166.899 83.5203 174.522 81.4577 179.365 80.0225C180.082 84.0585 182.414 98.7666 174.792 118.407C174.792 118.407 174.791 99.7527 166.899 83.5203Z" fill="white"/>
<path fill-rule="evenodd" clip-rule="evenodd" d="M170.308 73.7899C170.308 73.7899 171.989 76.7943 172.751 80.3818L179.291 78.5615C180.832 78.1859 180.863 78.5479 180.935 79.6666C181.463 87.8686 181.349 93.2084 180.823 99.5927C180.517 103.323 179.285 109.614 177.183 114.673C177.385 117.463 177.145 121.166 175.667 125.157C171.183 137.264 167.237 140.224 167.237 140.224C167.237 140.224 178.178 139.417 185.532 125.068C192.886 110.718 194.411 91.3466 194.411 91.3466C197.109 74.8964 192.975 51.8359 183.469 38.1649C175.488 26.6857 167.775 20.2735 162.483 16.7308C159.438 14.6914 153.553 11.8497 147.166 9.86536C137.579 6.88686 124.311 6.33566 115.131 10.588C110.871 12.5608 109.212 14.2198 105.445 17.987C105.445 17.987 118.718 15.6557 133.068 25.52C138.718 23.5024 143.068 20.7219 152.26 19.8699C161.165 26.5489 169.207 36.5882 174.498 49.1684C177.1 55.3582 179.581 62.4693 180.108 69.4994C180.176 70.4052 180.344 70.4929 178.999 70.9217L170.308 73.7913L170.308 73.7899Z" fill="white"/>
<path fill-rule="evenodd" clip-rule="evenodd" d="M172.975 107.87C172.975 107.87 170.106 91.7277 166.16 84.5532C166.16 84.5532 164.59 82.8942 166.563 82.311C168.536 81.7278 171.72 80.6969 171.72 80.6969C171.72 80.6969 170.522 75.777 169.254 74.2397C167.168 74.7025 165.566 74.9964 163.614 75.0209C161.939 75.0414 162.363 75.1455 161.395 73.6783C159.156 70.2861 153.3 61.4588 149.792 57.2003C145.398 51.8639 142.615 48.6819 134.142 41.6851C125.67 34.689 118.537 33.2552 118.537 33.2552C121.451 31.0728 128.748 27.4295 131.945 26.1699C131.945 26.1699 119.988 17.4392 103.157 19.8924C103.157 19.8924 96.8645 26.4163 92.5169 36.3514C85.9699 51.312 88.0236 71.3109 93.7404 86.213C93.7404 86.213 113.202 83.6121 132.932 88.0959C152.662 92.5803 170.599 105.674 170.599 105.674L172.975 107.87Z" fill="white"/>
<path fill-rule="evenodd" clip-rule="evenodd" d="M136.518 92.5803C136.518 92.5803 140.868 94.3292 143.692 97.6921C143.692 97.6921 144.5 95.6296 142.123 93.9705C139.747 92.3115 139.074 92.2666 136.518 92.5803Z" fill="white"/>
<path fill-rule="evenodd" clip-rule="evenodd" d="M128.492 89.71C128.492 89.71 115.353 86.0333 95.0401 87.9162C95.0401 87.9162 95.2463 91.2234 99.4327 98.7687C110.541 118.787 130.862 141.337 155.397 141.053C163.199 141.501 165.979 140.649 168.939 135.538C171.898 130.426 176.048 122.295 176.383 117.601L172.795 123.162C172.795 123.162 174.858 117.422 172.616 109.799C172.616 109.799 162.549 101.279 154.209 97.8711C154.209 97.8711 153.379 105.494 144.725 105.494C136.409 105.494 128.97 97.9895 128.492 89.71H128.492ZM118.156 119.104C118.156 119.104 129.186 135.516 151.697 135.695C151.697 135.695 168.541 135.767 171.427 123.408C171.427 123.408 166.226 134.26 151.966 133.99C136.332 133.696 129.001 129.13 118.156 119.103V119.104Z" fill="white"/>
<path d="M112.694 218.417C113.623 218.417 114.376 217.579 114.376 216.545C114.376 215.511 113.623 214.673 112.694 214.673C111.765 214.673 111.013 215.511 111.013 216.545C111.013 217.579 111.765 218.417 112.694 218.417Z" fill="white"/>
<path d="M62.2691 221.645C63.2598 221.645 64.0629 220.848 64.0629 219.863C64.0629 218.879 63.2598 218.081 62.2691 218.081C61.2784 218.081 60.4753 218.879 60.4753 219.863C60.4753 220.848 61.2784 221.645 62.2691 221.645Z" fill="white"/>
<path d="M141.923 190.121C142.679 190.121 143.291 189.559 143.291 188.866C143.291 188.172 142.679 187.61 141.923 187.61C141.168 187.61 140.555 188.172 140.555 188.866C140.555 189.559 141.168 190.121 141.923 190.121Z" fill="white"/>
<path fill-rule="evenodd" clip-rule="evenodd" d="M63.1598 117.038C62.4773 117.029 62.1119 100.888 65.5586 94.1699C68.6881 88.0707 70.5193 85.5175 71.2189 84.5267C71.4482 88.9349 76.511 100.925 78.4729 104.528C78.4729 104.528 68.6303 108.43 63.1598 117.039V117.038Z" fill="white"/>
<path fill-rule="evenodd" clip-rule="evenodd" d="M84.0155 117.079C84.0155 117.079 82.4456 116.864 80.5294 118.239C80.5294 118.239 81.3766 115.244 84.0155 117.079Z" fill="white"/>
</svg>
